<svg width="580" height="400" xmlns="http://www.w3.org/2000/svg" xmlns:xlink="http://www.w3.org/1999/xlink">
 <!-- Created with SVG Editor - http://github.com/mzalive/SVG Editor/ -->
 <g>
  <title>background</title>
  <rect fill="#fff" id="canvas_background" height="402" width="582" y="-1" x="-1"/>
  <g display="none" overflow="visible" y="0" x="0" height="100%" width="100%" id="canvasGrid">
   <rect fill="url(#gridpattern)" stroke-width="0" y="0" x="0" height="100%" width="100%"/>
  </g>
 </g>
 <g>
  <title>Layer 1</title>
  <path id="svg_35" d="m220.000016,234.035038c0,0 -36.842097,-41.4035 -36.842097,-41.4035c0,0 -38.596483,-23.15789 -38.596547,-23.157892c0.000064,0.000002 8.771992,10.877192 8.771928,10.877191c0.000064,0.000002 63.157946,61.05262 63.157946,61.05262c0,0 3.508771,-7.368419 3.508771,-7.368419z" fill-opacity="null" stroke-opacity="null" stroke-width="1.5" stroke="#000" fill="#333333"/>
  <image fill="#333333"href="Капибара.png" id="svg_1" height="383" width="448" y="7.447355" x="64.947371"/>
  <path id="svg_6" d="m221.754401,233.68416c0,0 3.157894,11.578945 3.157894,11.578945c0,0 1.754386,12.631576 1.754386,12.631576c0,0 -1.403508,7.719297 -1.403574,7.719294c0.000065,0.000003 -9.12274,3.157897 -9.122805,3.157894c0.000065,0.000003 -0.350812,4.210528 0.000065,4.210528c0.350877,0 -9.473682,1.403508 -9.473682,1.403508c0,0 0,2.807017 -0.000065,2.807014c0.000065,0.000003 8.070239,1.754389 8.070174,1.754386c0.000065,0.000003 -4.561337,2.80702 -4.561337,2.80702c0,0 3.859648,2.807017 3.859583,2.807014c0.000065,0.000003 13.684273,-2.10526 13.684273,-2.10526c0,0 -3.508771,6.666665 -3.508771,6.666665c0,0 4.561403,1.754386 4.561337,1.754382c0.000065,0.000003 -10.175371,2.80702 -10.175436,2.807017c0.000065,0.000003 2.807082,2.456143 2.807082,2.456143c0,0 7.719297,2.45614 7.719297,2.45614c0,0 -5.964911,3.157894 -5.964976,3.157891c0.000065,0.000003 9.824624,0.35088 9.824559,0.350877c0.000065,0.000003 8.070239,-0.350874 8.070174,-0.350877c0.000065,0.000003 -4.561337,7.368423 -4.561337,7.368423c0,0 7.017542,0.350877 7.017477,0.350874c0.000065,0.000003 7.368485,-9.473679 7.368419,-9.473682c0.000065,0.000003 7.719362,-17.543853 7.719362,-17.543853c0,0 3.157894,-17.543856 3.157894,-17.543856c0,0 1.754386,-15.78947 1.754386,-15.78947c0,0 7.368419,-12.982453 7.368354,-12.982456c0.000066,0.000003 5.6141,-8.070171 5.6141,-8.070171c0,0 1.403508,-4.561403 1.403508,-4.561403c0,0 -62.10525,4.210525 -62.10525,4.210525c0,0 5.964911,5.964911 5.964911,5.964911z" fill-opacity="null" stroke-opacity="null" stroke-width="1.5" stroke="#000" fill="#b712c9"/>
  <path id="svg_7" d="m359.99999,221.05258c0,0 16.8421,18.59649 16.8421,18.59649c0,0 13.6842,10.52632 13.6842,10.17544c0,-0.35088 10.17544,11.22807 10.17537,11.22806c0.00007,0.00001 4.56147,4.56141 4.56141,4.56141c0.00006,0 -5.26309,8.07017 -5.26316,8.07017c0.00007,0 -5.96484,4.5614 -5.96491,4.5614c0.00007,0 -13.33326,-3.85964 -13.33326,-3.85964c0,0 3.15789,4.91228 3.15782,4.91227c0.00007,0.00001 -11.228,2.10527 -11.22806,2.10527c0.00006,0 0.70182,3.15789 0.70175,3.15789c0.00007,0 10.87726,2.80702 10.87719,2.80702c0.00007,0 -9.47362,4.5614 -9.12274,4.5614c0.35088,0 3.50877,2.80702 3.50871,2.80702c0.00006,0 17.19304,-2.80702 17.19297,-2.80702c0.00007,0 11.57902,-1.75438 11.57895,-1.75439c0.00007,0.00001 8.77199,-13.33332 8.77193,-13.33333c0.00006,0.00001 4.91234,9.12281 4.91228,9.12281c0.00006,0 -2.45608,8.42105 -2.45614,8.42105c0.00006,0 -6.31572,8.07018 -6.31579,8.07017c0.00007,0.00001 -5.26309,4.21053 -5.26316,4.21053c0.00007,0 -12.98238,-3.50877 -12.63151,-3.50877c0.35088,0 3.1579,5.61403 3.1579,5.61403c0,0 -11.57895,1.75439 -11.57895,1.40351c0,-0.35087 -0.70175,3.50877 -0.70182,3.50877c0.00007,0 11.92989,2.80702 12.28077,2.80702c0.35087,0 -9.47368,5.26316 -9.12281,4.91228c0.35088,-0.35088 7.7193,2.45614 7.7193,2.45614c0,0 18.59649,-2.80702 18.59642,-2.80702c0.00007,0 7.36849,-3.50877 7.36849,-3.50877c0,0 8.42105,-10.87719 8.42098,-10.87719c0.00007,0 5.96498,-9.47368 5.96498,-9.47368c0,0 9.1228,-12.98245 9.12273,-12.98246c0.00007,0.00001 8.42112,-14.38596 8.42106,-14.38596c0.00006,0 0.70182,-7.71929 0.70175,-7.7193c0.00007,0.00001 -15.43853,-14.38595 -15.43859,-14.38596c0.00006,0.00001 -1.75432,-9.82455 -1.75432,-9.82455c0,0 5.96491,-13.33333 5.96484,-13.33334c0.00007,0.00001 1.40358,-6.31578 1.40351,-6.31579" fill-opacity="null" stroke-opacity="null" stroke-width="1.5" stroke="#000" fill="#b712c9"/>
  <path id="svg_25" d="m116.491265,159.999968c0,0 15.78947,3.859648 15.789406,3.859647c0.000064,0.000002 29.824619,14.736841 29.824555,14.736839c0.000065,0.000002 11.228132,7.017544 11.228068,7.017542c0.000065,0.000002 10.877255,7.368421 10.877255,7.368421c0,0 63.157881,-56.140339 63.157881,-56.140339c0,0 3.508771,-21.754381 3.508771,-21.754381c0,0 -8.070174,-12.631576 -8.070174,-12.631576c0,0 -27.719292,-10.175436 -27.719357,-10.175437c0.000065,0.000001 -4.21046,-18.596486 -4.21046,-18.596486c0,0 -6.666665,-1.754386 -6.666665,-1.754386c0,0 -12.982453,11.578945 -12.982453,11.578945c0,0 -23.859644,1.754386 -23.859709,1.754385c0.000065,0.000001 -24.210457,7.36842 -24.210521,7.368419c0.000064,0.000001 -20.350809,7.368421 -20.350873,7.368419c0.000064,0.000001 -8.07011,-1.754384 -8.07011,-1.754384c0,0 -8.771928,6.666665 -8.771928,6.666665c0,0 -9.473682,11.578945 -9.473746,11.578944c0.000064,0.000001 -2.105199,12.2807 -2.105263,12.280699c0.000064,0.000001 2.456204,11.228069 2.45614,11.228068c0.000064,0.000002 3.859712,7.368421 3.859648,7.368419c0.000064,0.000002 15.789534,12.631578 15.789534,12.631578z" stroke-opacity="null" stroke-width="1.5" stroke="#000" fill="#ffff56"/>
  <path id="svg_8" d="m231.929838,139.298216c0,0 14.385962,-16.842102 14.385896,-16.842103c0.000065,0.000001 0.350943,-8.42105 0.350877,-8.421051c0.000065,0.000001 -9.12274,-3.859647 -9.122805,-3.859648c0.000065,0.000001 -18.947299,6.315789 -18.947299,6.315789c0,0 13.33333,22.807013 13.33333,22.807013z" stroke-opacity="null" stroke-width="1.5" stroke="#000" fill="#1111c6"/>
  <path id="svg_9" d="m214.035105,91.929805c0,0 -3.157894,-13.33333 -3.157959,-13.333331c0.000065,0.000001 -3.157829,-1.403508 -3.157894,-1.403508c0.000065,0.000001 -10.877126,8.070175 -10.877191,8.070174c0.000065,0.000001 -1.403444,2.456141 -1.403508,2.45614c0.000065,0.000001 18.596552,4.210526 18.596552,4.210526z" stroke-opacity="null" stroke-width="1.5" stroke="#000" fill="#1111c6"/>
  <path id="svg_11" d="m182.105287,131.228042c0,0 5.263157,0.350877 5.263092,0.350876c0.000065,0.000001 7.719361,-4.210524 7.719297,-4.210525c0.000065,0.000001 -2.105198,-2.456138 -2.105263,-2.45614c0.000065,0.000001 -5.964846,-1.403507 -5.964846,-1.754384c0,-0.350877 -10.877191,2.45614 -10.877191,2.45614c0,0 3.508771,4.561403 3.508706,4.561401c0.000065,0.000001 2.456205,1.052633 2.456205,1.052633z" stroke-opacity="null" stroke-width="1.5" stroke="#000" fill="#1182c4"/>
  <path id="svg_14" d="m206.66669,129.12278c0,0 -9.82456,-10.52631 -9.82463,-10.52632c0.00007,0.00001 -10.87712,-3.15789 -10.87719,-3.15789c0.00007,0 -11.228,3.85965 -11.228,3.85965c0,0 5.61403,0 5.61397,0c0.00006,0 5.6141,-1.40351 5.61403,-1.40351c0.00007,0 8.42112,1.75439 8.42112,1.75439c0,0 12.2807,9.47368 12.2807,9.47368z" stroke-opacity="null" stroke-width="1.5" stroke="#000" fill="#000000"/>
  <path id="svg_21" d="m104.561444,105.964891c0,0 14.035085,24.912275 14.035085,24.912275c0,0 -18.24561,12.280699 -18.24561,12.280699c0,0 -5.614034,-15.087716 -5.614034,-15.087716c0,0 -0.350877,-4.561403 -0.350941,-4.561404c0.000064,0.000001 5.614098,-14.035083 5.614034,-14.035085c0.000064,0.000001 4.561466,-3.50877 4.561466,-3.50877z" stroke-opacity="null" stroke-width="1.5" stroke="#000" fill="#d31010"/>
  <path id="svg_18" d="m108.771969,124.912254c0,0 5.263157,6.666665 5.263093,6.666664c0.000064,0.000001 -2.456076,3.508773 -2.45614,3.508771c0.000064,0.000001 -4.210461,-2.456138 -4.210461,-2.456138c0,0 1.403508,-7.719297 1.403508,-7.719297z" stroke-opacity="null" stroke-width="1.5" stroke="#000" fill="#890101"/>
  <path id="svg_19" d="m107.368461,117.894712c0,0 -2.45614,-3.859648 -2.456204,-3.85965c0.000064,0.000001 -4.912216,2.105264 -4.912216,2.105264c0,0 3.157894,3.508771 3.15783,3.50877c0.000064,0.000001 4.210589,-1.754384 4.210589,-1.754384z" stroke-opacity="null" stroke-width="1.5" stroke="#000" fill="#890101"/>
  <path id="svg_24" d="m107.017584,149.824529c0,0 16.842102,0.701754 16.842102,0.701754c0,0 4.210525,3.859648 4.210525,3.859648c0,0 5.263157,5.263157 5.263093,5.263155c0.000064,0.000002 -7.368355,-0.701753 -7.368355,-0.701753c0,0 -6.666665,-3.508771 -6.666729,-3.508773c0.000064,0.000002 -6.666601,-2.105261 -6.666665,-2.105263c0.000064,0.000002 -5.61397,-3.50877 -5.61397,-3.50877z" stroke-opacity="null" stroke-width="1.5" stroke="#000" fill="#23d110"/>
  <path id="svg_27" d="m184.912304,195.087678c0,0 28.421047,31.228063 28.421047,31.228063c0,0 24.561398,-0.701754 24.561333,-0.701757c0.000065,0.000002 23.508832,-1.754383 23.508767,-1.754386c0.000066,0.000002 20.000061,-2.10526 20.000061,-2.456137c0,-0.350877 15.78947,8.421051 15.78947,8.421051c0,0 18.947364,7.719297 18.947364,7.719297c0,0 18.24561,0 18.24561,0c0,0 18.24561,2.45614 18.245544,2.456137c0.000067,0.000003 21.403571,-2.456137 21.403504,-2.45614c0.000067,0.000003 -12.982387,-14.736836 -12.982453,-14.736839c0.000067,0.000002 3.508838,-3.157892 3.859715,-3.157892c0.350877,0 78.947352,-1.403508 78.947352,-1.403508c0,0 3.508771,-15.78947 3.508771,-15.78947c0,0 1.403508,-20.70175 1.403441,-20.701752c0.000068,0.000002 -7.368352,-23.859642 -7.368419,-23.859644c0.000067,0.000002 -14.736771,-21.052625 -14.736839,-21.052627c0.000067,0.000001 -26.315717,-25.263151 -26.315784,-25.263152c0.000067,0.000001 -28.771857,-12.280698 -28.771923,-12.280699c0.000067,0.000001 -22.806946,-4.561401 -22.806946,-4.561401c0,0 -32.631572,7.017542 -32.631638,7.017541c0.000066,0.000001 -35.7894,4.561404 -35.789466,4.561402c0.000066,0.000001 -34.385892,-2.105262 -34.385892,-2.105262c0,0 5.614034,11.578945 5.613968,11.578944c0.000065,0.000001 -3.859583,20.350874 -3.508706,20.350874c0.350877,0 -11.228068,11.578945 -11.228133,11.578943c0.000065,0.000002 -20.350808,17.894735 -20.350808,17.543857c0,-0.350877 -29.122801,26.315784 -29.122801,26.315784c0,0 -2.45614,3.508771 -2.45614,3.508771z" stroke-opacity="null" stroke-width="1.5" stroke="#000" fill="#666666"/>
  <path id="svg_28" stroke-opacity="null" stroke-width="1.5" stroke="#000" fill="#333333"/>
  <path id="svg_33" d="m157.193012,178.596453c0,0 11.929822,6.666665 11.929757,6.666663c0.000065,0.000002 12.280764,4.912282 12.280699,4.91228c0.000065,0.000002 -5.964846,5.614036 -5.964911,5.614034c0.000065,0.000002 2.807082,0.350879 3.157959,0.000002c0.350877,-0.350877 3.508771,-2.105263 3.508771,-2.105263c0,0 0.701754,4.561403 0.70169,4.5614c0.000065,0.000002 2.807082,9.824561 2.807017,9.824559c0.000065,0.000002 1.052696,-11.578943 1.052631,-11.578945c0.000065,0.000002 3.157959,4.210528 3.157894,4.210525c0.000065,0.000002 0.701819,8.77193 0.701754,8.771928c0.000065,0.000002 -3.157829,6.666667 -3.157894,6.666665c0.000065,0.000002 2.456205,2.105265 2.45614,2.105263c0.000065,0.000002 2.456205,-16.140345 2.456205,-16.140345c0,0 1.754386,8.771928 1.754386,8.771928c0,0 3.157894,5.263157 3.157894,5.263157c0,0 2.105263,-0.350877 2.105198,-0.350879c0.000065,0.000002 0.350942,4.912282 0.350942,4.912282c0,0 -3.859648,6.666665 -3.859713,6.666663c0.000065,0.000002 3.157959,-0.701752 3.508836,-0.701752c0.350877,0 3.859648,-4.91228 3.859648,-4.91228c0,0 2.45614,-3.157894 2.456075,-3.157896c0.000065,0.000002 1.052696,7.017545 1.052696,7.017545c0,0 2.105263,-7.017542 2.105198,-7.017545c0.000065,0.000002 4.21059,3.157896 4.210525,3.157894c0.000065,0.000002 -3.508706,6.315791 -3.508706,6.315791c0,0 -3.157894,5.263157 -3.157894,5.263157c0,0 -7.017542,0.350877 -7.017542,0.350877c0,0 5.263157,2.105263 5.263157,2.105263c0,0 7.368419,-4.91228 7.368354,-4.912282c0.000065,0.000002 -1.403443,5.964913 -1.403508,5.964911c0.000065,0.000003 5.263222,-11.228065 5.263222,-11.228065c0,0 3.157894,1.754386 3.157894,1.754386c0,0 -1.052631,10.526314 -1.052696,10.526311c0.000065,0.000003 -3.859583,5.614036 -3.859583,5.614036" fill-opacity="null" stroke-opacity="null" stroke-width="1.5" stroke="#000" fill="#333333"/>
  <path id="svg_31" d="m218.947384,232.280652c0,0 -11.228068,-12.982453 -11.228133,-12.982456c0.000065,0.000002 -20.350808,-22.105256 -20.350873,-22.105258c0.000065,0.000002 -32.982384,-23.508765 -32.982384,-23.508765c0,0 -9.473682,-2.105263 -9.473747,-2.105265c0.000064,0.000002 30.877251,19.64912 30.877251,19.64912" opacity="0.5" fill-opacity="null" stroke-opacity="null" stroke-width="1.5" stroke="#000" fill="#333333"/>
  <path id="svg_36" d="m277.192986,229.473635c0,0 1.403508,8.421051 1.403508,8.421051c0,0 1.052631,-4.210525 1.052566,-4.210528c0.000066,0.000002 -2.105197,-6.666663 -2.105263,-6.666665c0.000066,0.000002 1.754451,-3.157892 1.754451,-3.157892c0,0 2.105263,3.859648 2.105197,3.859646c0.000066,0.000002 0.350943,-4.912277 0.350943,-4.912277c0,0 4.91228,2.45614 4.912214,2.456137c0.000066,0.000002 0.70182,5.964913 0.701754,5.964911c0.000066,0.000002 1.403574,-4.912277 1.403508,-4.91228c0.000066,0.000002 6.315854,4.561405 6.315854,4.561405c0,0 4.561403,3.157894 4.561337,3.157892c0.000066,0.000003 7.368485,4.210528 7.368419,4.210525c0.000066,0.000003 1.052697,-2.456137 1.052631,-2.45614c0.000066,0.000003 5.964977,3.157897 5.964911,3.157894c0.000066,0.000003 31.929884,1.754388 31.929884,2.105265c0,0.350877 23.15789,0.701754 23.15789,0.701754c0,0 5.614034,-3.508771 5.614034,-3.508771" fill-opacity="null" stroke-opacity="null" stroke-width="1.5" stroke="#000" fill="#333333"/>
  <path id="svg_37" d="m449.122774,169.473648c0,0 -4.561403,-11.929822 -4.56147,-11.929824c0.000068,0.000002 -18.245543,-25.614028 -18.245543,-25.614028c0,0 -17.894733,-16.842102 -17.8948,-16.842103c0.000067,0.000001 -20.350806,-11.578944 -20.350806,-11.578944c0,0 -15.438593,-7.719297 -15.43866,-7.719298c0.000067,0.000001 -17.192912,-3.157893 -17.192912,-3.157893c0,0 -45.263148,8.070174 -45.263148,8.070174c0,0 -38.94736,2.807017 -38.947426,2.807016c0.000066,0.000001 4.210591,3.508772 4.210525,3.508771c0.000066,0.000001 14.736905,-1.754384 14.736839,-1.754386c0.000066,0.000001 25.263218,-3.157893 25.263218,-3.157893c0,0 15.087716,-2.45614 15.087716,-2.45614c0,0 17.894733,-4.210525 17.894667,-4.210526c0.000066,0.000001 20.701816,2.807018 20.701816,2.456141" fill-opacity="null" stroke-opacity="null" stroke-width="1.5" stroke="#000" fill="#333333"/>
  <path id="svg_38" d="m368.421037,97.894716c-0.350877,0 9.824559,4.210525 9.824559,4.210525c0,0 14.035085,7.719297 14.035018,7.719295" opacity="0.5" fill-opacity="null" stroke-opacity="null" stroke-width="1.5" stroke="#000" fill="#333333"/>
 </g>
</svg>